<svg xmlns="http://www.w3.org/2000/svg" xmlns:xlink="http://www.w3.org/1999/xlink" width="500" zoomAndPan="magnify" viewBox="0 0 375 374.999991" height="500" preserveAspectRatio="xMidYMid meet" version="1.0"><defs><g/><clipPath id="4487152c91"><path d="M 8.925781 186 L 32 186 L 32 247 L 8.925781 247 Z M 8.925781 186 " clip-rule="nonzero"/></clipPath><clipPath id="cb5df1e33c"><path d="M 24 186 L 157.941406 186 L 157.941406 266.25 L 24 266.25 Z M 24 186 " clip-rule="nonzero"/></clipPath><clipPath id="d134186e47"><path d="M 73 108.625 L 95 108.625 L 95 179 L 73 179 Z M 73 108.625 " clip-rule="nonzero"/></clipPath><clipPath id="361e939532"><path d="M 20.246094 158.769531 L 116.269531 158.769531 L 116.269531 254.792969 L 20.246094 254.792969 Z M 20.246094 158.769531 " clip-rule="nonzero"/></clipPath><clipPath id="904903ce66"><path d="M 198.976562 219.246094 L 332.65625 219.246094 L 332.65625 234.75 L 198.976562 234.75 Z M 198.976562 219.246094 " clip-rule="nonzero"/></clipPath></defs><path fill="#bf935b" d="M 102.722656 205.175781 C 104.230469 205.175781 105.449219 203.957031 105.449219 202.449219 C 105.449219 200.945312 104.230469 199.722656 102.722656 199.722656 C 101.21875 199.722656 99.996094 200.945312 99.996094 202.449219 C 99.996094 203.957031 101.21875 205.175781 102.722656 205.175781 " fill-opacity="1" fill-rule="nonzero"/><path fill="#bf935b" d="M 94.539062 194.910156 C 97.035156 194.910156 99.058594 192.890625 99.058594 190.394531 C 99.058594 187.902344 97.035156 185.878906 94.539062 185.878906 C 92.046875 185.878906 90.023438 187.902344 90.023438 190.394531 C 90.023438 192.890625 92.046875 194.910156 94.539062 194.910156 " fill-opacity="1" fill-rule="nonzero"/><path fill="#bf935b" d="M 92.914062 214.300781 C 95.925781 214.300781 98.367188 211.859375 98.367188 208.847656 C 98.367188 205.835938 95.925781 203.398438 92.914062 203.398438 C 89.902344 203.398438 87.460938 205.835938 87.460938 208.847656 C 87.460938 211.859375 89.902344 214.300781 92.914062 214.300781 " fill-opacity="1" fill-rule="nonzero"/><path fill="#845333" d="M 68.359375 252.949219 C 91.003906 252.949219 109.878906 236.554688 113.765625 215.023438 C 97.226562 224.574219 79.886719 215.480469 62.957031 207.796875 L 33.605469 237.136719 C 42.070312 246.820312 54.511719 252.949219 68.359375 252.949219 " fill-opacity="1" fill-rule="nonzero"/><path fill="#bf935b" d="M 22.371094 203.015625 C 22.269531 204.269531 22.203125 205.535156 22.203125 206.8125 C 22.203125 218.410156 26.507812 229.023438 33.605469 237.136719 L 62.957031 207.796875 C 48.921875 201.429688 35.167969 196.03125 22.371094 203.015625 " fill-opacity="1" fill-rule="nonzero"/><g clip-path="url(#4487152c91)"><path fill="#845333" d="M 16.15625 186.632812 C 13.863281 186.632812 11.867188 188.164062 11.234375 190.371094 C 9.730469 195.59375 8.925781 201.109375 8.925781 206.8125 C 8.925781 222.09375 14.699219 236.027344 24.183594 246.554688 L 31.421875 239.320312 C 23.78125 230.652344 19.144531 219.273438 19.144531 206.8125 C 19.144531 202.058594 19.820312 197.464844 21.078125 193.113281 C 22.019531 189.867188 19.539062 186.632812 16.15625 186.632812 " fill-opacity="1" fill-rule="nonzero"/></g><g clip-path="url(#cb5df1e33c)"><path fill="#351f17" d="M 130.695312 186.632812 L 113.25 186.632812 C 116.109375 192.976562 117.664062 200.03125 117.566406 207.464844 C 117.222656 234.203125 95.234375 255.941406 68.480469 256.007812 C 53.71875 256.042969 40.464844 249.578125 31.421875 239.320312 L 24.183594 246.554688 C 35.0625 258.628906 50.824219 266.222656 68.359375 266.222656 C 101.183594 266.222656 127.792969 239.625 127.792969 206.8125 C 127.792969 203.042969 127.4375 199.355469 126.765625 195.78125 L 130.777344 195.78125 C 140.476562 195.78125 148.605469 203.464844 148.746094 213.160156 C 148.867188 221.332031 143.394531 228.269531 135.914062 230.390625 C 133.96875 230.941406 132.597656 232.671875 132.597656 234.691406 L 132.597656 234.863281 C 132.597656 237.828125 135.414062 240.027344 138.273438 239.234375 C 149.609375 236.082031 157.945312 225.65625 157.902344 213.324219 C 157.847656 198.5 145.523438 186.632812 130.695312 186.632812 " fill-opacity="1" fill-rule="nonzero"/></g><g clip-path="url(#d134186e47)"><path fill="#bf935b" d="M 82.777344 178.988281 C 82.777344 178.988281 83.347656 177.875 84.480469 175.992188 C 84.714844 175.515625 84.972656 174.988281 85.253906 174.417969 C 85.519531 173.84375 85.882812 173.261719 86.113281 172.582031 C 86.363281 171.914062 86.6875 171.21875 86.960938 170.480469 C 87.175781 169.730469 87.425781 168.953125 87.671875 168.144531 C 87.808594 167.320312 88.027344 166.480469 88.152344 165.605469 C 88.179688 165.164062 88.226562 164.722656 88.269531 164.273438 C 88.292969 164.046875 88.316406 163.824219 88.339844 163.59375 C 88.332031 163.367188 88.324219 163.136719 88.320312 162.902344 C 88.304688 162.441406 88.300781 161.976562 88.304688 161.503906 C 88.246094 161.035156 88.191406 160.558594 88.132812 160.078125 C 88.101562 159.835938 88.082031 159.597656 88.042969 159.355469 C 87.988281 159.113281 87.9375 158.871094 87.882812 158.625 C 87.769531 158.136719 87.707031 157.644531 87.550781 157.152344 C 87.398438 156.660156 87.234375 156.167969 87.09375 155.664062 C 86.945312 155.167969 86.71875 154.667969 86.539062 154.164062 C 86.4375 153.910156 86.351562 153.65625 86.242188 153.40625 C 86.125 153.152344 86.007812 152.902344 85.890625 152.648438 C 85.652344 152.140625 85.460938 151.628906 85.179688 151.117188 C 84.1875 149.070312 82.941406 147 81.699219 144.890625 C 80.457031 142.78125 79.152344 140.644531 77.996094 138.453125 C 77.691406 137.914062 77.417969 137.359375 77.136719 136.808594 C 76.871094 136.257812 76.597656 135.710938 76.363281 135.148438 C 76.128906 134.589844 75.871094 134.042969 75.652344 133.484375 C 75.4375 132.925781 75.253906 132.363281 75.054688 131.808594 C 74.347656 129.566406 73.917969 127.335938 73.894531 125.199219 C 73.871094 124.933594 73.894531 124.667969 73.914062 124.40625 C 73.929688 124.140625 73.949219 123.878906 73.964844 123.621094 C 74.007812 123.105469 74.007812 122.597656 74.140625 122.101562 C 74.242188 121.605469 74.34375 121.117188 74.445312 120.640625 C 74.46875 120.523438 74.496094 120.40625 74.519531 120.285156 C 74.558594 120.167969 74.597656 120.054688 74.636719 119.9375 C 74.71875 119.710938 74.796875 119.480469 74.875 119.257812 C 75.039062 118.8125 75.195312 118.375 75.351562 117.949219 C 75.558594 117.53125 75.757812 117.128906 75.964844 116.738281 C 76.171875 116.347656 76.371094 115.96875 76.566406 115.597656 C 76.804688 115.242188 77.035156 114.898438 77.269531 114.566406 C 78.121094 113.21875 79.15625 112.160156 79.9375 111.28125 C 80.039062 111.171875 80.132812 111.0625 80.230469 110.960938 C 80.335938 110.863281 80.4375 110.765625 80.539062 110.675781 C 80.742188 110.492188 80.929688 110.316406 81.109375 110.15625 C 81.457031 109.835938 81.765625 109.570312 82.011719 109.351562 C 82.507812 108.925781 82.777344 108.695312 82.777344 108.695312 C 82.777344 108.695312 82.648438 108.976562 82.40625 109.503906 C 82.175781 110.03125 81.757812 110.773438 81.347656 111.738281 C 80.992188 112.714844 80.4375 113.859375 80.109375 115.21875 C 80.011719 115.546875 79.90625 115.894531 79.800781 116.246094 C 79.742188 116.601562 79.675781 116.96875 79.609375 117.347656 C 79.546875 117.722656 79.472656 118.105469 79.394531 118.496094 C 79.371094 118.886719 79.347656 119.289062 79.324219 119.699219 C 79.167969 121.328125 79.363281 123.085938 79.714844 124.90625 C 79.839844 125.363281 79.949219 125.824219 80.0625 126.289062 C 80.109375 126.523438 80.191406 126.753906 80.273438 126.992188 C 80.359375 127.226562 80.441406 127.457031 80.523438 127.695312 C 80.605469 127.929688 80.6875 128.167969 80.769531 128.40625 C 80.855469 128.644531 80.96875 128.882812 81.066406 129.125 C 81.277344 129.601562 81.453125 130.085938 81.691406 130.574219 C 81.933594 131.058594 82.1875 131.546875 82.417969 132.039062 C 82.664062 132.53125 82.953125 133.027344 83.222656 133.527344 C 83.480469 134.027344 83.789062 134.527344 84.09375 135.03125 C 84.382812 135.539062 84.667969 136.046875 84.992188 136.558594 C 86.234375 138.601562 87.59375 140.703125 88.875 142.871094 C 90.152344 145.039062 91.390625 147.261719 92.339844 149.5625 C 92.605469 150.125 92.804688 150.714844 93.019531 151.289062 C 93.125 151.578125 93.226562 151.867188 93.328125 152.152344 C 93.425781 152.445312 93.496094 152.738281 93.582031 153.027344 C 93.734375 153.613281 93.925781 154.183594 94.039062 154.769531 C 94.152344 155.355469 94.242188 155.9375 94.34375 156.515625 C 94.4375 157.089844 94.441406 157.675781 94.492188 158.242188 C 94.511719 158.527344 94.53125 158.8125 94.546875 159.09375 C 94.546875 159.378906 94.523438 159.660156 94.507812 159.941406 C 94.472656 160.503906 94.449219 161.058594 94.40625 161.605469 C 94.316406 162.148438 94.222656 162.6875 94.113281 163.214844 C 94.0625 163.476562 94.011719 163.738281 93.960938 164 C 93.882812 164.257812 93.800781 164.507812 93.71875 164.761719 C 93.5625 165.265625 93.40625 165.761719 93.238281 166.246094 C 93.070312 166.726562 92.816406 167.1875 92.613281 167.640625 C 92.398438 168.097656 92.195312 168.542969 91.976562 168.972656 C 91.449219 169.8125 90.957031 170.613281 90.464844 171.363281 C 89.914062 172.097656 89.359375 172.773438 88.839844 173.410156 C 88.347656 174.046875 87.757812 174.609375 87.242188 175.128906 C 86.71875 175.648438 86.25 176.121094 85.8125 176.539062 C 83.929688 178.117188 82.777344 178.988281 82.777344 178.988281 " fill-opacity="1" fill-rule="nonzero"/></g><path fill="#845333" d="M 68.601562 189.601562 C 68.601562 189.601562 69.171875 188.492188 70.308594 186.605469 C 70.542969 186.132812 70.800781 185.605469 71.082031 185.03125 C 71.347656 184.460938 71.707031 183.878906 71.941406 183.199219 C 72.191406 182.527344 72.511719 181.835938 72.785156 181.097656 C 73 180.34375 73.25 179.570312 73.5 178.761719 C 73.636719 177.9375 73.855469 177.097656 73.976562 176.222656 C 74.007812 175.78125 74.054688 175.335938 74.097656 174.886719 C 74.121094 174.664062 74.140625 174.4375 74.164062 174.210938 C 74.160156 173.980469 74.152344 173.75 74.148438 173.519531 C 74.132812 173.058594 74.128906 172.589844 74.132812 172.121094 C 74.074219 171.652344 74.015625 171.175781 73.960938 170.691406 C 73.929688 170.453125 73.910156 170.210938 73.871094 169.96875 C 73.816406 169.730469 73.765625 169.488281 73.710938 169.242188 C 73.597656 168.753906 73.535156 168.261719 73.378906 167.769531 C 73.226562 167.277344 73.0625 166.78125 72.917969 166.28125 C 72.773438 165.785156 72.546875 165.28125 72.367188 164.78125 C 72.265625 164.527344 72.179688 164.273438 72.070312 164.023438 C 71.953125 163.769531 71.835938 163.515625 71.71875 163.265625 C 71.476562 162.757812 71.289062 162.246094 71.007812 161.734375 C 70.011719 159.6875 68.769531 157.617188 67.527344 155.507812 C 66.285156 153.398438 64.976562 151.261719 63.820312 149.070312 C 63.519531 148.53125 63.242188 147.976562 62.964844 147.425781 C 62.695312 146.875 62.425781 146.328125 62.191406 145.765625 C 61.953125 145.207031 61.695312 144.660156 61.480469 144.101562 C 61.265625 143.539062 61.078125 142.980469 60.882812 142.425781 C 60.175781 140.183594 59.746094 137.953125 59.71875 135.816406 C 59.699219 135.550781 59.722656 135.285156 59.738281 135.023438 C 59.757812 134.757812 59.777344 134.496094 59.792969 134.238281 C 59.835938 133.722656 59.835938 133.214844 59.964844 132.714844 C 60.070312 132.222656 60.171875 131.734375 60.273438 131.257812 C 60.296875 131.140625 60.320312 131.019531 60.347656 130.902344 C 60.386719 130.785156 60.425781 130.671875 60.464844 130.554688 C 60.542969 130.328125 60.625 130.097656 60.703125 129.875 C 60.863281 129.429688 61.023438 128.992188 61.179688 128.566406 C 61.386719 128.148438 61.585938 127.742188 61.792969 127.351562 C 61.996094 126.964844 62.199219 126.585938 62.394531 126.214844 C 62.628906 125.859375 62.863281 125.511719 63.09375 125.183594 C 63.949219 123.835938 64.984375 122.777344 65.765625 121.894531 C 65.863281 121.785156 65.960938 121.679688 66.054688 121.578125 C 66.164062 121.480469 66.265625 121.382812 66.367188 121.289062 C 66.566406 121.105469 66.757812 120.933594 66.933594 120.773438 C 67.285156 120.453125 67.589844 120.183594 67.839844 119.96875 C 68.335938 119.539062 68.601562 119.3125 68.601562 119.3125 C 68.601562 119.3125 68.472656 119.59375 68.230469 120.121094 C 68.003906 120.644531 67.582031 121.386719 67.171875 122.351562 C 66.816406 123.332031 66.261719 124.476562 65.9375 125.832031 C 65.835938 126.164062 65.734375 126.507812 65.628906 126.863281 C 65.566406 127.21875 65.503906 127.585938 65.4375 127.964844 C 65.375 128.339844 65.296875 128.722656 65.222656 129.109375 C 65.199219 129.503906 65.175781 129.90625 65.148438 130.316406 C 64.996094 131.945312 65.191406 133.703125 65.542969 135.523438 C 65.667969 135.980469 65.777344 136.441406 65.890625 136.90625 C 65.933594 137.140625 66.019531 137.371094 66.101562 137.605469 C 66.183594 137.839844 66.265625 138.074219 66.347656 138.3125 C 66.429688 138.546875 66.511719 138.785156 66.597656 139.023438 C 66.683594 139.261719 66.792969 139.5 66.890625 139.742188 C 67.105469 140.21875 67.277344 140.703125 67.519531 141.1875 C 67.761719 141.675781 68.015625 142.160156 68.246094 142.65625 C 68.492188 143.148438 68.78125 143.644531 69.046875 144.144531 C 69.308594 144.644531 69.613281 145.144531 69.917969 145.648438 C 70.210938 146.152344 70.496094 146.664062 70.820312 147.175781 C 72.0625 149.214844 73.421875 151.320312 74.703125 153.488281 C 75.976562 155.65625 77.21875 157.878906 78.167969 160.179688 C 78.433594 160.742188 78.632812 161.332031 78.847656 161.90625 C 78.949219 162.195312 79.054688 162.480469 79.15625 162.769531 C 79.25 163.058594 79.324219 163.355469 79.40625 163.644531 C 79.5625 164.230469 79.75 164.800781 79.867188 165.386719 C 79.980469 165.972656 80.070312 166.554688 80.167969 167.128906 C 80.265625 167.707031 80.269531 168.289062 80.320312 168.859375 C 80.339844 169.144531 80.355469 169.429688 80.375 169.710938 C 80.371094 169.996094 80.347656 170.277344 80.335938 170.558594 C 80.300781 171.121094 80.277344 171.675781 80.234375 172.21875 C 80.140625 172.765625 80.046875 173.304688 79.941406 173.832031 C 79.890625 174.09375 79.839844 174.355469 79.789062 174.613281 C 79.707031 174.871094 79.625 175.125 79.546875 175.378906 C 79.386719 175.882812 79.234375 176.378906 79.0625 176.863281 C 78.898438 177.34375 78.640625 177.800781 78.441406 178.257812 C 78.226562 178.714844 78.023438 179.160156 77.804688 179.589844 C 77.277344 180.429688 76.785156 181.230469 76.292969 181.980469 C 75.738281 182.710938 75.1875 183.390625 74.667969 184.023438 C 74.175781 184.664062 73.582031 185.226562 73.070312 185.746094 C 72.546875 186.265625 72.078125 186.738281 71.636719 187.15625 C 69.753906 188.734375 68.601562 189.601562 68.601562 189.601562 " fill-opacity="1" fill-rule="nonzero"/><g clip-path="url(#361e939532)"><path fill="#bf935b" d="M 68.316406 254.90625 C 41.816406 254.90625 20.246094 233.332031 20.246094 206.835938 C 20.246094 180.339844 41.816406 158.769531 68.316406 158.769531 C 94.8125 158.769531 116.382812 180.339844 116.382812 206.835938 C 116.382812 233.332031 94.8125 254.90625 68.316406 254.90625 Z M 68.316406 159.480469 C 42.195312 159.480469 20.957031 180.71875 20.957031 206.835938 C 20.957031 232.953125 42.195312 254.195312 68.316406 254.195312 C 94.433594 254.195312 115.671875 232.953125 115.671875 206.835938 C 115.671875 180.71875 94.433594 159.480469 68.316406 159.480469 Z M 68.316406 159.480469 " fill-opacity="1" fill-rule="nonzero"/></g><g fill="#2f1b14" fill-opacity="1"><g transform="translate(165.033749, 210.833012)"><g><path d="M 0.8125 8.609375 C -0.539062 8.609375 -1.820312 8.476562 -3.03125 8.21875 L -3.03125 2.453125 C -2.632812 2.523438 -2.210938 2.609375 -1.765625 2.703125 C -1.316406 2.796875 -0.828125 2.84375 -0.296875 2.84375 C 0.921875 2.84375 1.789062 2.472656 2.3125 1.734375 C 2.84375 1.003906 3.109375 -0.253906 3.109375 -2.046875 L 3.109375 -27.421875 L 10.5625 -27.421875 L 10.5625 -2.6875 C 10.5625 1.03125 9.75 3.84375 8.125 5.75 C 6.5 7.65625 4.0625 8.609375 0.8125 8.609375 Z M 0.8125 8.609375 "/></g></g></g><g fill="#2f1b14" fill-opacity="1"><g transform="translate(178.555665, 210.833012)"><g><path d="M 16.390625 0 L 14.984375 -2.8125 L 14.828125 -2.8125 C 13.847656 -1.582031 12.84375 -0.742188 11.8125 -0.296875 C 10.789062 0.148438 9.46875 0.375 7.84375 0.375 C 5.84375 0.375 4.265625 -0.222656 3.109375 -1.421875 C 1.960938 -2.617188 1.390625 -4.304688 1.390625 -6.484375 C 1.390625 -8.753906 2.175781 -10.441406 3.75 -11.546875 C 5.320312 -12.648438 7.601562 -13.269531 10.59375 -13.40625 L 14.140625 -13.515625 L 14.140625 -13.828125 C 14.140625 -15.578125 13.273438 -16.453125 11.546875 -16.453125 C 9.992188 -16.453125 8.023438 -15.925781 5.640625 -14.875 L 3.53125 -19.703125 C 6 -20.984375 9.125 -21.625 12.90625 -21.625 C 15.625 -21.625 17.726562 -20.945312 19.21875 -19.59375 C 20.71875 -18.25 21.46875 -16.363281 21.46875 -13.9375 L 21.46875 0 Z M 10.953125 -4.796875 C 11.835938 -4.796875 12.59375 -5.078125 13.21875 -5.640625 C 13.851562 -6.203125 14.171875 -6.9375 14.171875 -7.84375 L 14.171875 -9.484375 L 12.484375 -9.40625 C 10.078125 -9.320312 8.875 -8.4375 8.875 -6.75 C 8.875 -5.445312 9.566406 -4.796875 10.953125 -4.796875 Z M 10.953125 -4.796875 "/></g></g></g><g fill="#2f1b14" fill-opacity="1"><g transform="translate(202.486268, 210.833012)"><g><path d="M 8.09375 0 L 0 -21.25 L 7.65625 -21.25 L 11.25 -8.6875 C 11.257812 -8.625 11.285156 -8.515625 11.328125 -8.359375 C 11.367188 -8.210938 11.40625 -8.035156 11.4375 -7.828125 C 11.476562 -7.617188 11.515625 -7.398438 11.546875 -7.171875 C 11.578125 -6.941406 11.59375 -6.726562 11.59375 -6.53125 L 11.71875 -6.53125 C 11.71875 -7.175781 11.832031 -7.878906 12.0625 -8.640625 L 15.828125 -21.25 L 23.453125 -21.25 L 15.359375 0 Z M 8.09375 0 "/></g></g></g><g fill="#2f1b14" fill-opacity="1"><g transform="translate(225.948012, 210.833012)"><g><path d="M 16.390625 0 L 14.984375 -2.8125 L 14.828125 -2.8125 C 13.847656 -1.582031 12.84375 -0.742188 11.8125 -0.296875 C 10.789062 0.148438 9.46875 0.375 7.84375 0.375 C 5.84375 0.375 4.265625 -0.222656 3.109375 -1.421875 C 1.960938 -2.617188 1.390625 -4.304688 1.390625 -6.484375 C 1.390625 -8.753906 2.175781 -10.441406 3.75 -11.546875 C 5.320312 -12.648438 7.601562 -13.269531 10.59375 -13.40625 L 14.140625 -13.515625 L 14.140625 -13.828125 C 14.140625 -15.578125 13.273438 -16.453125 11.546875 -16.453125 C 9.992188 -16.453125 8.023438 -15.925781 5.640625 -14.875 L 3.53125 -19.703125 C 6 -20.984375 9.125 -21.625 12.90625 -21.625 C 15.625 -21.625 17.726562 -20.945312 19.21875 -19.59375 C 20.71875 -18.25 21.46875 -16.363281 21.46875 -13.9375 L 21.46875 0 Z M 10.953125 -4.796875 C 11.835938 -4.796875 12.59375 -5.078125 13.21875 -5.640625 C 13.851562 -6.203125 14.171875 -6.9375 14.171875 -7.84375 L 14.171875 -9.484375 L 12.484375 -9.40625 C 10.078125 -9.320312 8.875 -8.4375 8.875 -6.75 C 8.875 -5.445312 9.566406 -4.796875 10.953125 -4.796875 Z M 10.953125 -4.796875 "/></g></g></g><g fill="#2f1b14" fill-opacity="1"><g transform="translate(249.878615, 210.833012)"><g><path d="M 12.203125 0.375 C 8.734375 0.375 6.097656 -0.5625 4.296875 -2.4375 C 2.503906 -4.3125 1.609375 -7.003906 1.609375 -10.515625 C 1.609375 -14.046875 2.578125 -16.78125 4.515625 -18.71875 C 6.453125 -20.65625 9.210938 -21.625 12.796875 -21.625 C 15.253906 -21.625 17.570312 -21.085938 19.75 -20.015625 L 17.59375 -14.59375 C 16.707031 -14.976562 15.890625 -15.285156 15.140625 -15.515625 C 14.390625 -15.742188 13.609375 -15.859375 12.796875 -15.859375 C 11.609375 -15.859375 10.6875 -15.394531 10.03125 -14.46875 C 9.382812 -13.550781 9.0625 -12.25 9.0625 -10.5625 C 9.0625 -7.15625 10.316406 -5.453125 12.828125 -5.453125 C 14.972656 -5.453125 17.035156 -6.078125 19.015625 -7.328125 L 19.015625 -1.5 C 17.128906 -0.25 14.859375 0.375 12.203125 0.375 Z M 12.203125 0.375 "/></g></g></g><g fill="#2f1b14" fill-opacity="1"><g transform="translate(270.583464, 210.833012)"><g><path d="M 9.90625 0 L 2.5625 0 L 2.5625 -21.25 L 9.90625 -21.25 Z M 2.375 -26.53125 C 2.375 -27.632812 2.679688 -28.453125 3.296875 -28.984375 C 3.910156 -29.523438 4.898438 -29.796875 6.265625 -29.796875 C 7.628906 -29.796875 8.625 -29.519531 9.25 -28.96875 C 9.875 -28.414062 10.1875 -27.601562 10.1875 -26.53125 C 10.1875 -24.382812 8.878906 -23.3125 6.265625 -23.3125 C 3.671875 -23.3125 2.375 -24.382812 2.375 -26.53125 Z M 2.375 -26.53125 "/></g></g></g><g fill="#2f1b14" fill-opacity="1"><g transform="translate(283.073889, 210.833012)"><g><path d="M 15.9375 0 L 15.9375 -11.59375 C 15.9375 -13 15.734375 -14.0625 15.328125 -14.78125 C 14.921875 -15.5 14.269531 -15.859375 13.375 -15.859375 C 12.132812 -15.859375 11.238281 -15.363281 10.6875 -14.375 C 10.132812 -13.394531 9.859375 -11.703125 9.859375 -9.296875 L 9.859375 0 L 2.53125 0 L 2.53125 -21.25 L 8.0625 -21.25 L 8.984375 -18.625 L 9.40625 -18.625 C 10.039062 -19.625 10.910156 -20.375 12.015625 -20.875 C 13.117188 -21.375 14.390625 -21.625 15.828125 -21.625 C 18.179688 -21.625 20.007812 -20.941406 21.3125 -19.578125 C 22.613281 -18.210938 23.265625 -16.296875 23.265625 -13.828125 L 23.265625 0 Z M 15.9375 0 "/></g></g></g><g fill="#2f1b14" fill-opacity="1"><g transform="translate(308.804914, 210.833012)"><g><path d="M 15.9375 0 L 15.9375 -11.59375 C 15.9375 -13 15.734375 -14.0625 15.328125 -14.78125 C 14.921875 -15.5 14.269531 -15.859375 13.375 -15.859375 C 12.132812 -15.859375 11.238281 -15.363281 10.6875 -14.375 C 10.132812 -13.394531 9.859375 -11.703125 9.859375 -9.296875 L 9.859375 0 L 2.53125 0 L 2.53125 -21.25 L 8.0625 -21.25 L 8.984375 -18.625 L 9.40625 -18.625 C 10.039062 -19.625 10.910156 -20.375 12.015625 -20.875 C 13.117188 -21.375 14.390625 -21.625 15.828125 -21.625 C 18.179688 -21.625 20.007812 -20.941406 21.3125 -19.578125 C 22.613281 -18.210938 23.265625 -16.296875 23.265625 -13.828125 L 23.265625 0 Z M 15.9375 0 "/></g></g></g><g fill="#2f1b14" fill-opacity="1"><g transform="translate(334.535939, 210.833012)"><g><path d="M 22.828125 -10.671875 C 22.828125 -7.191406 21.890625 -4.476562 20.015625 -2.53125 C 18.148438 -0.59375 15.535156 0.375 12.171875 0.375 C 8.941406 0.375 6.375 -0.617188 4.46875 -2.609375 C 2.5625 -4.597656 1.609375 -7.285156 1.609375 -10.671875 C 1.609375 -14.128906 2.539062 -16.816406 4.40625 -18.734375 C 6.28125 -20.660156 8.90625 -21.625 12.28125 -21.625 C 14.375 -21.625 16.21875 -21.175781 17.8125 -20.28125 C 19.414062 -19.394531 20.648438 -18.125 21.515625 -16.46875 C 22.390625 -14.8125 22.828125 -12.878906 22.828125 -10.671875 Z M 9.0625 -10.671875 C 9.0625 -8.847656 9.300781 -7.457031 9.78125 -6.5 C 10.269531 -5.539062 11.09375 -5.0625 12.25 -5.0625 C 13.382812 -5.0625 14.1875 -5.539062 14.65625 -6.5 C 15.125 -7.457031 15.359375 -8.847656 15.359375 -10.671875 C 15.359375 -12.484375 15.117188 -13.851562 14.640625 -14.78125 C 14.171875 -15.707031 13.359375 -16.171875 12.203125 -16.171875 C 11.078125 -16.171875 10.269531 -15.707031 9.78125 -14.78125 C 9.300781 -13.863281 9.0625 -12.492188 9.0625 -10.671875 Z M 9.0625 -10.671875 "/></g></g></g><g clip-path="url(#904903ce66)"><path fill="#2f1b14" d="M 198.976562 219.246094 L 332.648438 219.246094 L 332.648438 234.75 L 198.976562 234.75 Z M 198.976562 219.246094 " fill-opacity="1" fill-rule="nonzero"/></g><g fill="#ffffff" fill-opacity="1"><g transform="translate(246.204524, 229.336351)"><g><path d="M 2.238281 -5.5 C 2.238281 -5.742188 2.226562 -6.019531 2.15625 -6.234375 C 2.085938 -6.4375 1.972656 -6.582031 1.796875 -6.582031 C 1.511719 -6.570312 1.421875 -6.273438 1.421875 -5.835938 C 1.421875 -5.578125 1.53125 -5.3125 1.695312 -5.027344 C 1.859375 -4.742188 2.074219 -4.445312 2.289062 -4.128906 C 2.542969 -3.75 2.800781 -3.363281 2.996094 -2.984375 C 3.1875 -2.605469 3.320312 -2.21875 3.320312 -1.808594 C 3.320312 -1.308594 3.238281 -0.839844 3.003906 -0.492188 C 2.769531 -0.144531 2.390625 0.0820312 1.789062 0.0820312 C 1.082031 0.0820312 0.683594 -0.183594 0.460938 -0.59375 C 0.234375 -1 0.183594 -1.542969 0.183594 -2.105469 L 1.265625 -2.207031 C 1.265625 -1.890625 1.277344 -1.574219 1.359375 -1.339844 C 1.429688 -1.09375 1.554688 -0.929688 1.789062 -0.929688 C 2.117188 -0.929688 2.238281 -1.277344 2.238281 -1.757812 C 2.238281 -2.003906 2.117188 -2.289062 1.953125 -2.585938 C 1.859375 -2.730469 1.769531 -2.882812 1.664062 -3.035156 C 1.453125 -3.34375 1.214844 -3.6875 0.972656 -4.066406 C 0.726562 -4.445312 0.542969 -4.835938 0.429688 -5.234375 C 0.367188 -5.425781 0.335938 -5.632812 0.335938 -5.835938 C 0.335938 -6.246094 0.429688 -6.683594 0.664062 -7.019531 C 0.898438 -7.347656 1.257812 -7.582031 1.777344 -7.59375 C 2.441406 -7.605469 2.832031 -7.328125 3.046875 -6.929688 C 3.261719 -6.519531 3.320312 -6.019531 3.320312 -5.601562 Z M 2.238281 -5.5 "/></g></g></g><g fill="#ffffff" fill-opacity="1"><g transform="translate(250.505499, 229.336351)"><g><path d="M 0.410156 -7.511719 L 1.511719 -7.511719 L 1.511719 0 L 0.410156 0 Z M 0.410156 -7.511719 "/></g></g></g><g fill="#ffffff" fill-opacity="1"><g transform="translate(253.223305, 229.336351)"><g><path d="M 1.574219 -3.914062 L 1.480469 -4.261719 L 1.421875 -4.261719 L 1.421875 0 L 0.410156 0 L 0.410156 -7.511719 L 1.390625 -7.511719 L 2.464844 -3.597656 L 2.554688 -3.25 L 2.617188 -3.25 L 2.617188 -7.511719 L 3.628906 -7.511719 L 3.628906 0 L 2.648438 0 Z M 1.574219 -3.914062 "/></g></g></g><g fill="#ffffff" fill-opacity="1"><g transform="translate(258.055402, 229.336351)"><g><path d="M 3.28125 -2.574219 L 3.28125 -1.542969 C 3.269531 -1.238281 3.210938 -0.960938 3.097656 -0.726562 C 3.003906 -0.519531 2.863281 -0.328125 2.65625 -0.171875 C 2.453125 -0.0117188 2.175781 0.0820312 1.808594 0.0820312 C 1.441406 0.0820312 1.15625 -0.0117188 0.949219 -0.171875 C 0.746094 -0.328125 0.613281 -0.519531 0.519531 -0.726562 C 0.410156 -0.960938 0.347656 -1.238281 0.335938 -1.542969 L 0.335938 -5.96875 C 0.347656 -6.265625 0.410156 -6.539062 0.519531 -6.777344 C 0.613281 -6.980469 0.746094 -7.183594 0.949219 -7.335938 C 1.15625 -7.492188 1.441406 -7.59375 1.808594 -7.59375 C 2.175781 -7.59375 2.453125 -7.492188 2.65625 -7.335938 C 2.863281 -7.183594 3.003906 -6.980469 3.097656 -6.777344 C 3.210938 -6.539062 3.269531 -6.265625 3.28125 -5.96875 L 3.28125 -4.9375 L 2.25 -4.9375 L 2.25 -5.96875 C 2.25 -6.171875 2.199219 -6.316406 2.085938 -6.4375 C 2.035156 -6.488281 1.941406 -6.519531 1.828125 -6.519531 C 1.636719 -6.519531 1.542969 -6.378906 1.492188 -6.246094 C 1.460938 -6.164062 1.453125 -6.070312 1.441406 -5.96875 L 1.441406 -1.542969 C 1.453125 -1.328125 1.511719 -1.183594 1.613281 -1.074219 C 1.664062 -1.023438 1.738281 -0.992188 1.828125 -0.992188 C 2.0625 -0.992188 2.15625 -1.113281 2.207031 -1.265625 C 2.238281 -1.339844 2.25 -1.429688 2.25 -1.542969 L 2.25 -2.574219 Z M 3.28125 -2.574219 "/></g></g></g><g fill="#ffffff" fill-opacity="1"><g transform="translate(262.387015, 229.336351)"><g><path d="M 0.410156 -7.511719 L 2.933594 -7.511719 L 2.933594 -6.378906 L 1.511719 -6.378906 L 1.511719 -4.40625 L 2.535156 -4.40625 L 2.535156 -3.199219 L 1.511719 -3.199219 L 1.511719 -1.132812 L 2.933594 -1.132812 L 2.933594 0 L 0.410156 0 Z M 0.410156 -7.511719 "/></g></g></g><g fill="#ffffff" fill-opacity="1"><g transform="translate(266.320286, 229.336351)"><g/></g></g><g fill="#ffffff" fill-opacity="1"><g transform="translate(268.690816, 229.336351)"><g><path d="M 0.304688 -5.128906 L 0.304688 -5.652344 C 0.304688 -6.152344 0.378906 -6.644531 0.59375 -7 C 0.808594 -7.359375 1.175781 -7.59375 1.777344 -7.59375 C 2.339844 -7.59375 2.71875 -7.378906 2.941406 -7.050781 C 3.167969 -6.714844 3.25 -6.246094 3.25 -5.722656 C 3.25 -4.957031 2.964844 -4.046875 2.605469 -3.199219 C 2.238281 -2.339844 1.808594 -1.574219 1.523438 -1.09375 L 3.269531 -1.09375 L 3.269531 0 L 0.277344 0 L 0.277344 -1.09375 C 0.613281 -1.613281 0.917969 -2.144531 1.195312 -2.675781 C 1.429688 -3.128906 1.65625 -3.636719 1.828125 -4.160156 C 2.003906 -4.679688 2.136719 -5.191406 2.144531 -5.652344 C 2.144531 -5.855469 2.136719 -6.089844 2.085938 -6.265625 C 2.035156 -6.4375 1.941406 -6.570312 1.777344 -6.570312 C 1.625 -6.570312 1.53125 -6.457031 1.480469 -6.296875 C 1.429688 -6.121094 1.410156 -5.898438 1.410156 -5.652344 L 1.410156 -5.128906 Z M 0.304688 -5.128906 "/></g></g></g><g fill="#ffffff" fill-opacity="1"><g transform="translate(273.134781, 229.336351)"><g><path d="M 3.28125 -1.542969 C 3.269531 -1.238281 3.210938 -0.960938 3.097656 -0.726562 C 3.003906 -0.519531 2.863281 -0.328125 2.65625 -0.171875 C 2.453125 -0.0117188 2.175781 0.0820312 1.808594 0.0820312 C 1.441406 0.0820312 1.15625 -0.0117188 0.949219 -0.171875 C 0.746094 -0.328125 0.613281 -0.519531 0.519531 -0.726562 C 0.410156 -0.960938 0.347656 -1.238281 0.335938 -1.542969 L 0.335938 -5.96875 C 0.347656 -6.265625 0.410156 -6.539062 0.519531 -6.777344 C 0.613281 -6.980469 0.746094 -7.183594 0.949219 -7.335938 C 1.15625 -7.492188 1.441406 -7.59375 1.808594 -7.59375 C 2.175781 -7.59375 2.453125 -7.492188 2.65625 -7.335938 C 2.863281 -7.183594 3.003906 -6.980469 3.097656 -6.777344 C 3.210938 -6.539062 3.269531 -6.265625 3.28125 -5.96875 Z M 2.175781 -5.96875 C 2.175781 -6.171875 2.136719 -6.316406 2.035156 -6.4375 C 1.984375 -6.488281 1.902344 -6.519531 1.808594 -6.519531 C 1.613281 -6.519531 1.523438 -6.378906 1.480469 -6.246094 C 1.453125 -6.164062 1.441406 -6.070312 1.441406 -5.96875 L 1.441406 -1.542969 C 1.441406 -1.328125 1.492188 -1.183594 1.59375 -1.074219 C 1.644531 -1.023438 1.71875 -0.992188 1.808594 -0.992188 C 2.003906 -0.992188 2.09375 -1.113281 2.136719 -1.265625 C 2.167969 -1.339844 2.175781 -1.429688 2.175781 -1.542969 Z M 2.175781 -5.96875 "/></g></g></g><g fill="#ffffff" fill-opacity="1"><g transform="translate(277.548108, 229.336351)"><g><path d="M 0.304688 -5.128906 L 0.304688 -5.652344 C 0.304688 -6.152344 0.378906 -6.644531 0.59375 -7 C 0.808594 -7.359375 1.175781 -7.59375 1.777344 -7.59375 C 2.339844 -7.59375 2.71875 -7.378906 2.941406 -7.050781 C 3.167969 -6.714844 3.25 -6.246094 3.25 -5.722656 C 3.25 -4.957031 2.964844 -4.046875 2.605469 -3.199219 C 2.238281 -2.339844 1.808594 -1.574219 1.523438 -1.09375 L 3.269531 -1.09375 L 3.269531 0 L 0.277344 0 L 0.277344 -1.09375 C 0.613281 -1.613281 0.917969 -2.144531 1.195312 -2.675781 C 1.429688 -3.128906 1.65625 -3.636719 1.828125 -4.160156 C 2.003906 -4.679688 2.136719 -5.191406 2.144531 -5.652344 C 2.144531 -5.855469 2.136719 -6.089844 2.085938 -6.265625 C 2.035156 -6.4375 1.941406 -6.570312 1.777344 -6.570312 C 1.625 -6.570312 1.53125 -6.457031 1.480469 -6.296875 C 1.429688 -6.121094 1.410156 -5.898438 1.410156 -5.652344 L 1.410156 -5.128906 Z M 0.304688 -5.128906 "/></g></g></g><g fill="#ffffff" fill-opacity="1"><g transform="translate(281.992073, 229.336351)"><g><path d="M 1.828125 -1.636719 L 0.121094 -1.636719 L 0.121094 -2.605469 L 1.738281 -7.511719 L 2.839844 -7.511719 L 2.839844 -2.605469 L 3.351562 -2.605469 L 3.351562 -1.636719 L 2.839844 -1.636719 L 2.839844 0 L 1.828125 0 Z M 1.0625 -2.605469 L 1.828125 -2.605469 L 1.828125 -5.179688 L 1.769531 -5.179688 L 1.707031 -4.957031 Z M 1.0625 -2.605469 "/></g></g></g></svg>