<svg width="619" height="265" viewBox="0 0 619 265" fill="none" xmlns="http://www.w3.org/2000/svg">
<path d="M157.955 162.612C160.488 162.612 162.536 160.563 162.536 158.038C162.536 155.513 160.488 153.464 157.955 153.464C155.429 153.464 153.381 155.513 153.381 158.038C153.381 160.563 155.429 162.612 157.955 162.612Z" fill="white"/>
<path d="M144.225 145.382C148.412 145.382 151.809 141.985 151.809 137.798C151.809 133.612 148.412 130.215 144.225 130.215C140.039 130.215 136.649 133.612 136.649 137.798C136.649 141.985 140.039 145.382 144.225 145.382Z" fill="white"/>
<path d="M141.499 177.928C146.557 177.928 150.654 173.831 150.654 168.78C150.654 163.722 146.557 159.625 141.499 159.625C136.448 159.625 132.351 163.722 132.351 168.78C132.351 173.831 136.448 177.928 141.499 177.928Z" fill="white"/>
<path d="M100.289 242.812C138.296 242.812 169.963 215.294 176.489 179.142C148.733 195.181 119.643 179.917 91.2306 167.015L41.9678 216.27C56.1812 232.525 77.0544 242.812 100.289 242.812Z" fill="#F1B15E"/>
<path d="M23.121 158.984C22.9496 161.092 22.8379 163.215 22.8379 165.361C22.8379 184.834 30.0638 202.645 41.9679 216.27L91.2308 167.015C67.6758 156.325 44.5901 147.259 23.121 158.984Z" fill="white"/>
<mask id="mask0_243_742" style="mask-type:luminance" maskUnits="userSpaceOnUse" x="0" y="129" width="39" height="104">
<path d="M0.556641 129.976H38.7199V232.957H0.556641V129.976Z" fill="white"/>
</mask>
<g mask="url(#mask0_243_742)">
<path d="M12.6917 131.481C8.84037 131.481 5.49559 134.059 4.43033 137.753C1.90498 146.521 0.556641 155.788 0.556641 165.361C0.556641 191.017 10.2409 214.408 26.1602 232.085L38.3102 219.935C25.4898 205.379 17.7052 186.279 17.7052 165.361C17.7052 157.383 18.8375 149.665 20.9456 142.365C22.5249 136.912 18.3681 131.481 12.6917 131.481Z" fill="#F1B15E"/>
</g>
<mask id="mask1_243_742" style="mask-type:luminance" maskUnits="userSpaceOnUse" x="25" y="129" width="226" height="136">
<path d="M25.3706 129.976H250.544V264.944H25.3706V129.976Z" fill="white"/>
</mask>
<g mask="url(#mask1_243_742)">
<path d="M204.901 131.481H175.625C180.423 142.134 183.037 153.978 182.874 166.456C182.293 211.346 145.396 247.841 100.498 247.952C75.7215 248.012 53.485 237.158 38.3106 219.935L26.1606 232.085C44.4191 252.355 70.8645 265.101 100.29 265.101C155.378 265.101 200.03 220.442 200.03 165.361C200.03 159.029 199.434 152.838 198.309 146.842H205.036C221.312 146.842 234.952 159.737 235.191 176.014C235.392 189.735 226.207 201.386 213.655 204.947C210.392 205.871 208.09 208.776 208.09 212.165V212.456C208.09 217.425 212.82 221.12 217.618 219.794C236.636 214.505 250.626 196.991 250.551 176.289C250.462 151.408 229.782 131.481 204.901 131.481Z" fill="#845333"/>
</g>
<mask id="mask2_243_742" style="mask-type:luminance" maskUnits="userSpaceOnUse" x="109" y="0" width="37" height="121">
<path d="M109.28 0.52063H145.514V120.441H109.28V0.52063Z" fill="white"/>
</mask>
<g mask="url(#mask2_243_742)">
<path d="M124.484 118.646C124.484 118.646 125.445 116.783 127.345 113.617C127.74 112.813 128.172 111.934 128.641 110.973C129.088 110.012 129.699 109.036 130.086 107.896C130.503 106.771 131.047 105.609 131.509 104.365C131.867 103.106 132.284 101.795 132.701 100.439C132.932 99.0612 133.297 97.6533 133.506 96.1858C133.558 95.4408 133.632 94.6959 133.707 93.9435C133.744 93.5636 133.781 93.1837 133.818 92.8037C133.811 92.4238 133.796 92.0365 133.789 91.6491C133.759 90.8669 133.759 90.0847 133.759 89.2951C133.669 88.5054 133.573 87.7084 133.476 86.8964C133.424 86.4941 133.394 86.0918 133.319 85.6821C133.237 85.2798 133.148 84.8701 133.059 84.4604C132.865 83.6484 132.761 82.8215 132.5 81.9947C132.247 81.1678 131.971 80.3334 131.733 79.4917C131.487 78.6573 131.107 77.8156 130.801 76.9738C130.63 76.5492 130.489 76.1245 130.302 75.6999C130.109 75.2753 129.908 74.8507 129.714 74.4261C129.312 73.5768 128.991 72.7127 128.522 71.856C126.853 68.4219 124.767 64.943 122.682 61.4045C120.596 57.8661 118.398 54.2755 116.461 50.5955C115.955 49.6941 115.493 48.7555 115.024 47.8392C114.577 46.9155 114.115 45.9992 113.727 45.0457C113.325 44.1145 112.893 43.1908 112.536 42.2596C112.171 41.3135 111.858 40.3674 111.53 39.4437C110.345 35.6818 109.623 31.9347 109.578 28.3441C109.541 27.9046 109.586 27.4576 109.615 27.0107C109.645 26.5712 109.675 26.1316 109.697 25.6996C109.772 24.828 109.772 23.9788 109.988 23.1444C110.167 22.3101 110.338 21.4981 110.502 20.6936C110.547 20.4924 110.591 20.2988 110.636 20.0976C110.696 19.9039 110.763 19.7103 110.83 19.5166C110.964 19.1292 111.098 18.7493 111.224 18.3694C111.5 17.6244 111.768 16.8869 112.029 16.1718C112.379 15.4715 112.707 14.7937 113.057 14.1381C113.4 13.4826 113.735 12.8494 114.063 12.2311C114.465 11.6277 114.852 11.0466 115.24 10.4954C116.677 8.23819 118.413 6.45778 119.724 4.97535C119.888 4.79656 120.052 4.61778 120.216 4.44644C120.387 4.27511 120.559 4.11867 120.73 3.96223C121.073 3.64936 121.385 3.35883 121.683 3.09065C122.272 2.5543 122.786 2.10733 123.203 1.74231C124.037 1.01972 124.484 0.639801 124.484 0.639801C124.484 0.639801 124.268 1.10911 123.859 1.99559C123.479 2.88207 122.771 4.12612 122.086 5.74264C121.49 7.38895 120.559 9.3109 120.015 11.5904C119.843 12.1417 119.672 12.7227 119.493 13.3112C119.389 13.9146 119.285 14.5329 119.173 15.1661C119.069 15.7993 118.942 16.44 118.815 17.0881C118.771 17.7511 118.733 18.4215 118.689 19.1143C118.428 21.8482 118.763 24.7982 119.344 27.8524C119.56 28.6197 119.747 29.3945 119.933 30.1767C120.007 30.564 120.149 30.9588 120.29 31.3537C120.424 31.7485 120.566 32.1359 120.7 32.5381C120.842 32.9329 120.976 33.3278 121.117 33.73C121.266 34.1323 121.452 34.5271 121.616 34.9368C121.966 35.7414 122.264 36.5533 122.667 37.3653C123.076 38.1848 123.501 38.9967 123.888 39.8311C124.298 40.658 124.782 41.4923 125.229 42.3266C125.669 43.161 126.183 44.0027 126.697 44.852C127.181 45.7012 127.665 46.5579 128.202 47.4146C130.295 50.8487 132.567 54.3723 134.72 58.0151C136.858 61.6504 138.944 65.3825 140.538 69.2487C140.985 70.1948 141.313 71.1781 141.678 72.1466C141.849 72.6308 142.02 73.115 142.192 73.5992C142.355 74.0834 142.475 74.5751 142.616 75.0667C142.877 76.05 143.197 77.011 143.391 77.9869C143.577 78.9702 143.726 79.9535 143.897 80.9145C144.054 81.8829 144.061 82.8662 144.151 83.8198C144.181 84.2965 144.21 84.7733 144.24 85.2501C144.233 85.7268 144.195 86.2036 144.173 86.6729C144.114 87.619 144.076 88.5501 144.002 89.4664C143.845 90.3752 143.689 91.2766 143.51 92.1631C143.428 92.6101 143.339 93.0496 143.257 93.4816C143.123 93.9137 142.981 94.3383 142.847 94.7629C142.586 95.6122 142.326 96.4465 142.043 97.251C141.76 98.063 141.327 98.8378 140.992 99.5976C140.635 100.365 140.292 101.11 139.927 101.832C139.04 103.248 138.214 104.589 137.387 105.848C136.463 107.077 135.532 108.217 134.66 109.282C133.841 110.355 132.843 111.301 131.978 112.172C131.107 113.036 130.317 113.833 129.58 114.534C126.421 117.186 124.484 118.646 124.484 118.646Z" fill="white"/>
</g>
<path d="M100.699 136.465C100.699 136.465 101.66 134.602 103.567 131.436C103.954 130.639 104.386 129.753 104.863 128.799C105.302 127.838 105.913 126.855 106.301 125.715C106.725 124.59 107.262 123.428 107.723 122.192C108.081 120.925 108.506 119.622 108.915 118.266C109.146 116.88 109.519 115.472 109.72 114.005C109.772 113.267 109.847 112.522 109.921 111.762C109.958 111.39 109.996 111.01 110.033 110.623C110.025 110.243 110.01 109.855 110.003 109.468C109.981 108.693 109.973 107.911 109.981 107.121C109.884 106.332 109.787 105.527 109.69 104.723C109.638 104.321 109.608 103.911 109.541 103.509C109.452 103.106 109.362 102.697 109.273 102.287C109.087 101.467 108.975 100.641 108.714 99.8136C108.461 98.9868 108.185 98.1599 107.947 97.3181C107.701 96.4763 107.321 95.642 107.016 94.7927C106.852 94.3681 106.703 93.9435 106.517 93.5189C106.323 93.1017 106.129 92.6771 105.928 92.2525C105.526 91.3958 105.206 90.5391 104.736 89.6825C103.068 86.2483 100.982 82.7694 98.896 79.231C96.8101 75.685 94.62 72.1019 92.6757 68.4219C92.1692 67.5131 91.7073 66.5819 91.238 65.6581C90.791 64.7344 90.3366 63.8181 89.9418 62.8721C89.547 61.9335 89.1149 61.0172 88.7499 60.0786C88.3923 59.1325 88.0794 58.1939 87.7442 57.2627C86.5598 53.5007 85.8372 49.7537 85.7925 46.1705C85.7552 45.7236 85.7999 45.2766 85.8297 44.8371C85.8595 44.3976 85.8893 43.9581 85.9191 43.5185C85.9862 42.6544 85.9862 41.7977 86.2096 40.9634C86.381 40.1365 86.5523 39.3171 86.7237 38.5125C86.7609 38.3189 86.8056 38.1177 86.8503 37.924C86.9173 37.7229 86.9769 37.5292 87.044 37.3355C87.1781 36.9556 87.3122 36.5683 87.4462 36.1958C87.7144 35.4434 87.9826 34.7134 88.2433 33.9982C88.5934 33.298 88.9212 32.6126 89.2713 31.9645C89.614 31.309 89.9567 30.6683 90.277 30.05C90.6793 29.4541 91.0666 28.873 91.4615 28.3143C92.8918 26.0572 94.6275 24.2768 95.9386 22.8018C96.1099 22.6155 96.2663 22.4367 96.4228 22.2654C96.609 22.1015 96.7803 21.9376 96.9442 21.7812C97.2869 21.4758 97.6072 21.1853 97.9052 20.9171C98.4937 20.3733 99.0003 19.9263 99.4174 19.5613C100.252 18.8461 100.699 18.4588 100.699 18.4588C100.699 18.4588 100.483 18.9355 100.08 19.8146C99.6931 20.701 98.9928 21.9451 98.3 23.5691C97.7041 25.2154 96.7729 27.1299 96.2291 29.4094C96.0577 29.9681 95.8864 30.5417 95.7151 31.1376C95.6108 31.741 95.499 32.3519 95.3873 32.9851C95.283 33.6183 95.1489 34.2589 95.0297 34.9145C94.985 35.57 94.9478 36.2479 94.9031 36.9333C94.6498 39.6672 94.9776 42.6246 95.5661 45.6789C95.7747 46.4462 95.9535 47.2209 96.1471 48.0031C96.2216 48.3904 96.3632 48.7778 96.5047 49.1726C96.6462 49.5675 96.7803 49.9623 96.9219 50.3571C97.056 50.7594 97.1975 51.1542 97.3316 51.549C97.4806 51.9513 97.6668 52.3535 97.8307 52.7558C98.1883 53.5603 98.4788 54.3723 98.8811 55.1917C99.2908 56.0037 99.7154 56.8232 100.103 57.65C100.512 58.4844 101.004 59.3113 101.451 60.153C101.883 60.9874 102.397 61.8292 102.911 62.6709C103.403 63.5276 103.88 64.3769 104.423 65.241C106.509 68.6677 108.789 72.1987 110.942 75.834C113.08 79.4768 115.158 83.2089 116.752 87.0677C117.199 88.0138 117.534 89.0046 117.892 89.9655C118.063 90.4572 118.235 90.934 118.406 91.4182C118.57 91.9024 118.689 92.4015 118.831 92.8931C119.091 93.869 119.412 94.83 119.605 95.8133C119.799 96.7966 119.948 97.7725 120.112 98.7409C120.276 99.7093 120.276 100.685 120.365 101.646C120.395 102.123 120.425 102.6 120.455 103.069C120.455 103.553 120.41 104.023 120.387 104.499C120.335 105.438 120.291 106.369 120.216 107.285C120.067 108.202 119.911 109.103 119.724 109.99C119.643 110.429 119.553 110.869 119.471 111.308C119.337 111.733 119.203 112.165 119.069 112.589C118.801 113.439 118.54 114.265 118.257 115.077C117.974 115.889 117.549 116.657 117.207 117.424C116.849 118.184 116.506 118.936 116.141 119.659C115.255 121.067 114.428 122.415 113.601 123.667C112.677 124.903 111.754 126.043 110.875 127.101C110.055 128.173 109.057 129.12 108.2 129.991C107.321 130.863 106.532 131.66 105.794 132.36C102.636 135.005 100.699 136.465 100.699 136.465Z" fill="#F1B15E"/>
<mask id="mask3_243_742" style="mask-type:luminance" maskUnits="userSpaceOnUse" x="19" y="84" width="162" height="162">
<path d="M19.5444 84.6392H180.63V245.725H19.5444V84.6392Z" fill="white"/>
</mask>
<g mask="url(#mask3_243_742)">
<path d="M100.184 245.911C55.7336 245.911 19.5444 209.722 19.5444 165.271C19.5444 120.828 55.7336 84.6392 100.184 84.6392C144.635 84.6392 180.824 120.828 180.824 165.271C180.824 209.722 144.635 245.911 100.184 245.911ZM100.184 85.8311C56.3668 85.8311 20.7363 121.462 20.7363 165.271C20.7363 209.089 56.3668 244.719 100.184 244.719C144.001 244.719 179.632 209.089 179.632 165.271C179.632 121.462 144.001 85.8311 100.184 85.8311Z" fill="#BF935B"/>
</g>
<path d="M273.814 185.824C271.371 185.824 269.061 185.593 266.871 185.139V174.769C267.609 174.888 268.383 175.022 269.195 175.186C269.992 175.365 270.864 175.454 271.817 175.454C274.023 175.454 275.587 174.784 276.526 173.458C277.479 172.147 277.956 169.875 277.956 166.634V120.925H291.365V165.502C291.365 172.192 289.905 177.25 286.984 180.669C284.064 184.103 279.669 185.824 273.814 185.824Z" fill="white"/>
<path d="M326.244 170.329L323.711 165.264H323.443C321.655 167.469 319.837 168.981 317.99 169.793C316.142 170.605 313.759 171.015 310.838 171.015C307.24 171.015 304.402 169.934 302.316 167.767C300.245 165.606 299.217 162.567 299.217 158.649C299.217 154.559 300.633 151.519 303.478 149.53C306.317 147.549 310.429 146.424 315.815 146.163L322.191 145.985V145.418C322.191 142.282 320.627 140.71 317.513 140.71C314.727 140.71 311.181 141.656 306.875 143.541L303.061 134.81C307.531 132.531 313.163 131.384 319.956 131.384C324.858 131.384 328.657 132.605 331.339 135.049C334.036 137.477 335.392 140.874 335.392 145.24V170.329H326.244ZM316.44 161.688C318.049 161.688 319.42 161.181 320.552 160.168C321.685 159.155 322.251 157.837 322.251 156.205V153.225L319.211 153.374C314.861 153.538 312.686 155.132 312.686 158.172C312.686 160.518 313.937 161.688 316.44 161.688Z" fill="white"/>
<path d="M354.428 170.329L339.827 132.039H353.623L360.09 154.685C360.104 154.805 360.149 155.006 360.209 155.281C360.283 155.542 360.358 155.862 360.417 156.235C360.492 156.592 360.566 156.98 360.626 157.397C360.685 157.814 360.715 158.202 360.715 158.559H360.954C360.954 157.39 361.147 156.116 361.55 154.745L368.343 132.039H382.08L367.509 170.329H354.428Z" fill="white"/>
<path d="M411.624 170.329L409.091 165.264H408.823C407.035 167.469 405.218 168.981 403.37 169.793C401.523 170.605 399.139 171.015 396.219 171.015C392.621 171.015 389.782 169.934 387.697 167.767C385.626 165.606 384.598 162.567 384.598 158.649C384.598 154.559 386.013 151.519 388.859 149.53C391.697 147.549 395.809 146.424 401.195 146.163L407.572 145.985V145.418C407.572 142.282 406.007 140.71 402.893 140.71C400.107 140.71 396.561 141.656 392.256 143.541L388.442 134.81C392.911 132.531 398.543 131.384 405.337 131.384C410.238 131.384 414.038 132.605 416.719 135.049C419.416 137.477 420.772 140.874 420.772 145.24V170.329H411.624ZM401.821 161.688C403.43 161.688 404.8 161.181 405.933 160.168C407.065 159.155 407.631 157.837 407.631 156.205V153.225L404.592 153.374C400.241 153.538 398.066 155.132 398.066 158.172C398.066 160.518 399.318 161.688 401.821 161.688Z" fill="white"/>
<path d="M447.198 171.015C440.94 171.015 436.188 169.331 432.955 165.949C429.737 162.574 428.127 157.717 428.127 151.378C428.127 145.024 429.863 140.107 433.342 136.628C436.836 133.134 441.805 131.384 448.241 131.384C452.688 131.384 456.867 132.352 460.786 134.274L456.882 144.048C455.288 143.355 453.82 142.796 452.472 142.379C451.116 141.962 449.708 141.753 448.241 141.753C446.11 141.753 444.464 142.588 443.294 144.256C442.117 145.925 441.536 148.279 441.536 151.318C441.536 157.442 443.801 160.496 448.33 160.496C452.204 160.496 455.914 159.379 459.475 157.129V167.618C456.055 169.882 451.966 171.015 447.198 171.015Z" fill="white"/>
<path d="M480.358 170.329H467.128V132.039H480.358V170.329ZM466.8 122.534C466.8 120.552 467.344 119.07 468.439 118.094C469.549 117.126 471.336 116.634 473.802 116.634C476.246 116.634 478.033 117.133 479.166 118.124C480.298 119.122 480.864 120.59 480.864 122.534C480.864 126.408 478.51 128.344 473.802 128.344C469.131 128.344 466.8 126.408 466.8 122.534Z" fill="white"/>
<path d="M513.737 170.329V149.441C513.737 146.901 513.364 144.986 512.634 143.69C511.897 142.401 510.712 141.753 509.088 141.753C506.861 141.753 505.252 142.647 504.261 144.435C503.263 146.208 502.771 149.255 502.771 153.583V170.329H489.571V132.039H499.553L501.192 136.777H501.967C503.099 134.974 504.656 133.619 506.645 132.725C508.649 131.831 510.943 131.384 513.528 131.384C517.759 131.384 521.045 132.62 523.391 135.079C525.753 137.522 526.937 140.971 526.937 145.418V170.329H513.737Z" fill="white"/>
<path d="M560.092 170.329V149.441C560.092 146.901 559.72 144.986 558.99 143.69C558.252 142.401 557.068 141.753 555.444 141.753C553.216 141.753 551.607 142.647 550.616 144.435C549.618 146.208 549.127 149.255 549.127 153.583V170.329H535.926V132.039H545.908L547.547 136.777H548.322C549.454 134.974 551.011 133.619 553 132.725C555.004 131.831 557.299 131.384 559.884 131.384C564.115 131.384 567.4 132.62 569.747 135.079C572.108 137.522 573.292 140.971 573.292 145.418V170.329H560.092Z" fill="white"/>
<path d="M618.845 151.11C618.845 157.367 617.154 162.254 613.779 165.77C610.42 169.271 605.712 171.015 599.655 171.015C593.83 171.015 589.204 169.227 585.77 165.651C582.35 162.06 580.645 157.211 580.645 151.11C580.645 144.875 582.321 140.025 585.68 136.569C589.055 133.112 593.785 131.384 599.864 131.384C603.618 131.384 606.933 132.188 609.816 133.797C612.692 135.392 614.919 137.671 616.491 140.651C618.055 143.631 618.845 147.117 618.845 151.11ZM594.053 151.11C594.053 154.387 594.486 156.89 595.365 158.619C596.236 160.347 597.704 161.211 599.775 161.211C601.838 161.211 603.291 160.347 604.125 158.619C604.974 156.89 605.406 154.387 605.406 151.11C605.406 147.832 604.967 145.374 604.095 143.72C603.239 142.051 601.778 141.217 599.715 141.217C597.689 141.217 596.236 142.044 595.365 143.69C594.486 145.344 594.053 147.817 594.053 151.11Z" fill="white"/>
<mask id="mask4_243_742" style="mask-type:luminance" maskUnits="userSpaceOnUse" x="333" y="185" width="242" height="29">
<path d="M333.5 185.482H574.339V213.417H333.5V185.482Z" fill="white"/>
</mask>
<g mask="url(#mask4_243_742)">
<path d="M333.5 185.482H574.324V213.417H333.5V185.482Z" fill="white"/>
</g>
<path d="M422.618 193.757C422.618 193.317 422.603 192.818 422.477 192.431C422.343 192.066 422.142 191.805 421.829 191.805C421.315 191.827 421.151 192.356 421.151 193.153C421.151 193.615 421.352 194.092 421.642 194.606C421.94 195.12 422.328 195.656 422.715 196.222C423.17 196.908 423.631 197.608 423.982 198.286C424.332 198.971 424.57 199.671 424.57 200.409C424.57 201.31 424.421 202.152 424.004 202.778C423.579 203.404 422.894 203.813 421.814 203.813C420.54 203.813 419.825 203.336 419.415 202.599C419.013 201.862 418.916 200.886 418.916 199.873L420.868 199.686C420.868 200.26 420.89 200.826 421.039 201.251C421.166 201.698 421.389 201.988 421.814 201.988C422.402 201.988 422.618 201.362 422.618 200.498C422.618 200.059 422.402 199.537 422.104 199.008C421.94 198.748 421.777 198.472 421.59 198.196C421.203 197.645 420.778 197.019 420.339 196.334C419.892 195.656 419.564 194.956 419.363 194.241C419.251 193.891 419.199 193.518 419.199 193.153C419.199 192.416 419.363 191.626 419.788 191.015C420.205 190.427 420.853 190.002 421.791 189.987C422.991 189.965 423.691 190.464 424.078 191.179C424.458 191.917 424.57 192.818 424.57 193.578L422.618 193.757Z" fill="#231F20"/>
<path d="M427.074 190.129H429.063V203.664H427.074V190.129Z" fill="#231F20"/>
<path d="M434.071 196.61L433.9 195.984H433.796V203.664H431.971V190.129H433.736L435.673 197.183L435.837 197.809H435.949V190.129H437.766V203.664H436.001L434.071 196.61Z" fill="#231F20"/>
<path d="M445.846 199.023V200.886C445.831 201.437 445.72 201.936 445.519 202.361C445.355 202.726 445.094 203.076 444.729 203.351C444.356 203.649 443.857 203.813 443.194 203.813C442.531 203.813 442.017 203.649 441.652 203.351C441.28 203.076 441.041 202.726 440.878 202.361C440.676 201.936 440.565 201.437 440.55 200.886V192.915C440.565 192.378 440.676 191.879 440.878 191.455C441.041 191.09 441.28 190.717 441.652 190.442C442.017 190.166 442.531 189.987 443.194 189.987C443.857 189.987 444.356 190.166 444.729 190.442C445.094 190.717 445.355 191.09 445.519 191.455C445.72 191.879 445.831 192.378 445.846 192.915V194.77H443.991V192.915C443.991 192.542 443.895 192.289 443.693 192.066C443.604 191.976 443.44 191.917 443.232 191.917C442.881 191.917 442.718 192.177 442.628 192.416C442.569 192.565 442.554 192.729 442.531 192.915V200.886C442.554 201.273 442.665 201.526 442.852 201.727C442.941 201.824 443.068 201.876 443.232 201.876C443.656 201.876 443.828 201.66 443.917 201.385C443.969 201.251 443.991 201.087 443.991 200.886V199.023H445.846Z" fill="#231F20"/>
<path d="M448.48 190.129H453.024V192.177H450.469V195.731H452.309V197.898H450.469V201.623H453.024V203.664H448.48V190.129Z" fill="#231F20"/>
<path d="M459.65 194.42V193.481C459.65 192.58 459.777 191.693 460.164 191.052C460.552 190.404 461.215 189.987 462.302 189.987C463.315 189.987 463.993 190.375 464.403 190.963C464.805 191.566 464.954 192.416 464.954 193.354C464.954 194.732 464.44 196.371 463.792 197.898C463.129 199.448 462.354 200.826 461.84 201.698H464.992V203.664H459.598V201.698C460.202 200.752 460.753 199.798 461.252 198.837C461.677 198.033 462.079 197.109 462.392 196.17C462.705 195.232 462.95 194.308 462.965 193.481C462.965 193.116 462.95 192.691 462.854 192.378C462.764 192.066 462.6 191.827 462.302 191.827C462.027 191.827 461.863 192.028 461.766 192.326C461.677 192.639 461.639 193.041 461.639 193.481V194.42H459.65Z" fill="#231F20"/>
<path d="M473.013 200.886C472.998 201.437 472.886 201.936 472.685 202.361C472.521 202.726 472.26 203.076 471.895 203.351C471.523 203.649 471.024 203.813 470.361 203.813C469.698 203.813 469.184 203.649 468.819 203.351C468.446 203.076 468.208 202.726 468.044 202.361C467.843 201.936 467.731 201.437 467.716 200.886V192.915C467.731 192.378 467.843 191.879 468.044 191.455C468.208 191.09 468.446 190.717 468.819 190.442C469.184 190.166 469.698 189.987 470.361 189.987C471.024 189.987 471.523 190.166 471.895 190.442C472.26 190.717 472.521 191.09 472.685 191.455C472.886 191.879 472.998 192.378 473.013 192.915V200.886ZM471.024 192.915C471.024 192.542 470.957 192.289 470.771 192.066C470.674 191.976 470.532 191.917 470.361 191.917C470.018 191.917 469.847 192.177 469.772 192.416C469.72 192.565 469.698 192.729 469.698 192.915V200.886C469.698 201.273 469.795 201.526 469.981 201.727C470.07 201.824 470.197 201.876 470.361 201.876C470.711 201.876 470.882 201.66 470.957 201.385C471.009 201.251 471.024 201.087 471.024 200.886V192.915Z" fill="#231F20"/>
<path d="M475.607 194.42V193.481C475.607 192.58 475.734 191.693 476.121 191.052C476.509 190.404 477.172 189.987 478.259 189.987C479.272 189.987 479.95 190.375 480.36 190.963C480.762 191.566 480.911 192.416 480.911 193.354C480.911 194.732 480.397 196.371 479.749 197.898C479.086 199.448 478.311 200.826 477.797 201.698H480.949V203.664H475.555V201.698C476.159 200.752 476.71 199.798 477.209 198.837C477.634 198.033 478.036 197.109 478.349 196.17C478.662 195.232 478.907 194.308 478.922 193.481C478.922 193.116 478.907 192.691 478.811 192.378C478.721 192.066 478.557 191.827 478.259 191.827C477.984 191.827 477.82 192.028 477.723 192.326C477.634 192.639 477.596 193.041 477.596 193.481V194.42H475.607Z" fill="#231F20"/>
<path d="M486.355 200.722H483.286V198.971L486.191 190.129H488.18V198.971H489.104V200.722H488.18V203.664H486.355V200.722ZM484.977 198.971H486.355V194.33H486.251L486.139 194.732L484.977 198.971Z" fill="#231F20"/>
</svg>
